<?xml version="1.0" standalone="no"?>
<!DOCTYPE svg PUBLIC "-//W3C//DTD SVG 20010904//EN"
 "http://www.w3.org/TR/2001/REC-SVG-20010904/DTD/svg10.dtd">
<svg version="1.0" xmlns="http://www.w3.org/2000/svg"
 width="700.000000pt" height="700.000000pt" viewBox="0 0 700.000000 700.000000"
 preserveAspectRatio="xMidYMid meet">
<metadata>
Created by potrace 1.14, written by Peter Selinger 2001-2017
</metadata>
<g transform="translate(0.000000,700.000000) scale(0.100000,-0.100000)"
fill="#000000" stroke="none">
<path d="M1925 5623 c-204 -46 -366 -130 -510 -264 -189 -178 -298 -385 -296
-569 1 -122 46 -216 124 -261 37 -21 54 -24 138 -23 80 1 102 4 136 24 55 31
81 80 91 177 5 43 19 100 30 126 28 62 93 122 160 147 68 26 219 36 294 21
141 -30 253 -153 274 -303 3 -18 7 -39 9 -46 3 -7 5 -197 5 -422 1 -425 3
-453 44 -498 47 -53 66 -56 281 -57 191 0 202 1 248 24 92 46 157 134 177 241
11 55 14 250 6 346 -7 80 -16 167 -22 199 -3 17 -7 39 -9 50 -20 142 -81 337
-143 462 -96 189 -350 431 -569 542 -119 60 -207 82 -333 86 -63 1 -124 1
-135 -2z"/>
<path d="M3528 5082 l-28 -3 0 -315 0 -314 139 0 c76 0 153 5 172 11 71 24
119 94 119 173 0 44 -35 109 -70 130 l-31 18 36 31 c28 24 38 42 42 74 18 135
-48 189 -236 192 -58 1 -107 3 -110 4 -3 2 -18 1 -33 -1z m252 -85 c64 -32 65
-121 0 -165 -30 -20 -44 -22 -115 -20 l-80 3 -1 98 0 97 85 0 c49 0 97 -6 111
-13z m19 -273 c69 -41 58 -166 -17 -196 -29 -11 -159 -15 -184 -6 -13 5 -15
25 -13 110 1 56 3 106 4 109 0 3 41 5 90 4 65 -2 98 -8 120 -21z"/>
<path d="M4579 5026 c-2 -3 -4 -28 -3 -55 2 -55 1 -55 -59 -51 -26 2 -28 -1
-25 -31 3 -31 5 -33 43 -33 l40 -1 1 -152 c2 -184 7 -218 39 -239 29 -19 79
-28 111 -20 19 5 24 13 24 36 0 27 -3 30 -34 30 -54 0 -58 13 -58 177 0 82 1
153 1 160 1 7 17 11 44 10 40 -1 42 0 42 28 0 28 -3 30 -42 33 -24 2 -43 8
-44 15 -1 7 -2 30 -3 52 -1 38 -3 40 -36 43 -20 2 -38 1 -41 -2z"/>
<path d="M4869 5013 c0 -10 -1 -34 -2 -53 -2 -33 -4 -35 -42 -40 -35 -4 -40
-9 -43 -32 -2 -18 2 -28 10 -29 7 0 27 -2 43 -2 l30 -2 2 -168 c2 -199 11
-226 80 -241 63 -13 92 -2 91 34 -1 27 -4 30 -33 30 -18 0 -37 6 -43 13 -11
13 -14 74 -13 240 l1 99 34 -5 c42 -6 51 1 52 36 0 25 -3 27 -43 27 -42 0 -43
1 -44 33 -1 17 0 42 1 55 1 19 -3 22 -39 22 -32 0 -41 -4 -42 -17z"/>
<path d="M4179 4920 c-102 -29 -156 -112 -157 -242 0 -149 98 -249 232 -236
151 16 229 169 176 345 -14 46 -57 96 -103 119 -33 18 -110 25 -148 14z m137
-92 c73 -72 63 -242 -17 -300 -30 -23 -96 -26 -128 -7 -53 33 -78 111 -66 206
5 44 14 61 45 95 38 39 41 40 91 36 36 -4 58 -12 75 -30z"/>
<path d="M5260 4921 c-49 -12 -88 -41 -121 -92 -29 -46 -33 -60 -35 -133 -6
-154 60 -240 194 -252 91 -9 158 30 203 116 46 88 25 246 -42 309 -50 47 -130
68 -199 52z m129 -85 c27 -25 52 -81 56 -126 11 -138 -69 -229 -170 -194 -68
23 -102 94 -91 192 12 109 55 156 139 149 26 -2 56 -12 66 -21z"/>
<path d="M5785 4919 c-17 -5 -41 -18 -53 -29 -12 -11 -23 -18 -23 -15 -1 3 -3
10 -4 15 -1 6 -3 15 -4 20 0 6 -17 10 -36 10 -34 0 -35 -1 -36 -37 -1 -62 -1
-407 0 -420 1 -8 16 -13 41 -13 l39 0 0 177 c0 173 1 178 24 201 28 28 90 39
130 23 45 -18 53 -52 52 -236 l0 -165 41 0 40 0 1 166 c0 179 5 199 53 227 55
33 123 16 144 -35 9 -23 13 -82 12 -196 l-1 -162 41 0 42 0 -2 183 c-2 155 -5
188 -21 221 -41 86 -180 98 -262 23 l-23 -20 -17 20 c-38 43 -111 60 -178 42z"/>
<path d="M1945 4742 c-60 -13 -99 -74 -109 -173 -3 -30 -8 -259 -11 -510 -4
-356 -9 -469 -20 -513 -19 -72 -39 -111 -67 -130 -50 -35 -99 -14 -219 94 -87
79 -89 80 -134 82 -26 1 -43 -5 -61 -24 -30 -30 -53 -90 -46 -125 4 -23 100
-127 384 -415 92 -94 120 -129 132 -166 13 -40 15 -95 10 -352 -2 -168 -6
-407 -8 -532 -4 -215 -5 -230 -27 -275 -29 -58 -76 -93 -116 -85 -24 4 -108
54 -123 72 -3 3 -33 32 -67 63 -53 48 -69 57 -101 57 -21 0 -47 -7 -58 -15
-29 -20 -54 -76 -54 -120 0 -34 11 -48 133 -173 387 -397 355 -360 382 -438
12 -35 16 -80 16 -161 -1 -123 -12 -162 -58 -204 -57 -54 -85 -61 -242 -64
-183 -3 -204 -10 -245 -92 -52 -102 5 -251 102 -269 21 -4 314 -8 652 -7 493
0 620 2 640 13 116 61 128 247 22 328 -33 25 -40 26 -176 28 -77 1 -155 5
-172 9 -56 12 -100 67 -123 150 -9 34 -25 780 -23 1068 1 104 21 156 85 214
96 88 467 470 473 486 3 11 3 39 -1 63 -8 59 -51 104 -97 103 -47 -1 -58 -7
-134 -78 -89 -82 -138 -113 -182 -113 -49 0 -82 29 -121 106 -39 79 -37 33
-45 711 -17 1318 -15 1242 -46 1312 -27 60 -81 88 -145 75z"/>
<path d="M1028 4304 c-2 -1 -32 -4 -68 -5 -322 -12 -596 -291 -638 -649 -17
-141 8 -313 64 -437 8 -17 14 -35 14 -40 0 -17 98 -159 138 -200 23 -23 66
-59 96 -79 l55 -36 268 0 c179 -1 276 3 290 10 29 16 46 65 40 118 -6 53 -27
80 -82 104 -60 26 -108 82 -133 153 -26 77 -31 110 -33 228 -1 141 22 225 81
293 51 57 82 69 186 71 107 2 139 18 173 88 39 81 23 152 -52 227 -78 77 -180
124 -314 144 -46 7 -84 12 -85 10z"/>
<path d="M3500 3915 c0 -127 4 -245 10 -264 28 -98 100 -146 220 -145 94 0
150 27 195 94 l30 45 1 250 2 250 -37 -2 c-20 -1 -39 -2 -42 -2 -3 -1 -6 -106
-6 -234 0 -253 -3 -272 -56 -311 -21 -16 -43 -21 -86 -21 -68 0 -101 15 -127
58 -17 29 -19 55 -21 247 -1 118 -2 226 -3 240 0 22 -4 25 -40 25 l-40 0 0
-230z"/>
<path d="M6160 4018 c-45 -36 -121 -70 -214 -93 -88 -22 -137 -28 -316 -40
-256 -18 -463 -126 -553 -289 -35 -62 -66 -181 -62 -229 4 -42 15 -39 -130
-42 -55 -1 -115 2 -133 7 -26 7 -44 4 -91 -18 -72 -32 -83 -50 -38 -62 34 -9
227 -8 274 2 15 3 44 8 63 11 86 14 259 65 309 91 14 8 30 14 35 14 14 0 209
101 253 131 92 64 39 9 -68 -68 -79 -59 -211 -127 -309 -161 -89 -31 -92 -32
-112 -32 -27 0 56 -67 103 -84 240 -87 575 128 834 534 53 83 189 339 184 345
-2 2 -15 -6 -29 -17z"/>
<path d="M4226 3980 c-16 -5 -40 -19 -53 -32 -14 -13 -24 -18 -23 -13 7 35 -1
45 -37 45 l-38 0 2 -317 c0 -175 1 -321 2 -325 1 -5 18 -8 40 -8 l38 0 -1 110
c0 61 0 110 1 110 1 0 19 -10 39 -22 43 -25 126 -32 164 -12 40 20 78 66 95
114 17 49 22 144 10 200 -10 49 -49 114 -80 134 -31 21 -118 29 -159 16z m113
-86 c49 -41 66 -141 41 -235 -23 -86 -127 -119 -191 -61 l-31 28 -2 117 c-1
114 0 119 24 141 48 45 113 49 159 10z"/>
<path d="M2870 3424 c-132 -28 -279 -125 -325 -214 -21 -40 -21 -104 -1 -150
37 -83 71 -102 184 -102 98 0 134 -12 183 -62 63 -64 96 -175 93 -311 -4 -224
-52 -334 -173 -394 -59 -30 -91 -74 -91 -127 0 -37 25 -91 48 -103 14 -7 118
-11 295 -11 l274 0 49 27 c103 58 208 187 270 333 18 44 32 80 30 80 -2 0 2
21 10 48 23 73 28 119 29 232 0 125 -6 165 -40 267 -73 217 -221 377 -425 460
-111 44 -279 56 -410 27z"/>
<path d="M780 2496 c-193 -44 -376 -190 -470 -376 -32 -64 -68 -169 -76 -220
-3 -19 -7 -42 -10 -50 -7 -19 -6 -159 2 -219 16 -128 92 -334 154 -416 37 -49
151 -153 189 -173 40 -21 54 -22 314 -23 150 0 280 3 289 6 51 20 70 130 32
183 -11 15 -41 37 -67 49 -126 62 -176 188 -171 434 3 152 44 248 131 307 37
26 67 30 195 32 56 0 101 33 129 95 37 80 20 151 -54 225 -60 59 -120 95 -212
126 -67 23 -99 28 -200 30 -68 1 -144 -3 -175 -10z"/>
</g>
</svg>
