<svg xmlns="http://www.w3.org/2000/svg" width="512" height="512" viewBox="0 0 512 512" data-svgdocument="" id="_gF5iky7zhpYWQa0iTxeUw" class="fl-svgdocument" x="0" y="0" xmlns:xlink="http://www.w3.org/1999/xlink" style=""><defs transform="matrix(0.7944615483283997, 0, 0, 0.7944615483283997, -40.93520736694336, 187.25025939941406)"></defs><g transform="matrix(2.4168608372287945, 0, 0, 2.8764646913728664, -37.94687384398783, -430.44005285493415)"><path d="M59.888,107.756h-5.675l0.016-0.001c0,0-0.012,0-0.028,0.001h-0.104c-0.747-0.013-4.443-0.332-4.443-5.418v1.422   L49.26,80.215c0.64-3.294,3.768-4.484,3.768-4.484l10.234-8.91c1.204-0.963-0.241-3.131-0.241-3.131   c-1.444-1.685-3.612-0.602-3.612-0.602s-2.769,2.408-4.575,3.372c-4.042,2.156-5.636-3.097-5.87-3.97L48.33,24.621   c0-2.826-0.846-5.117-3.672-5.117c-2.826,0-3.672,2.291-3.672,5.117l-0.388,23.182l0.027-4.099c0,0-0.535,6.562-4.937,4.214   c-1.806-0.963-4.575-3.372-4.575-3.372s-2.167-1.083-3.612,0.602c0,0-1.445,2.167-0.241,3.13l10.234,8.909   c0,0,2.317,1.165,2.884,3.717l-0.379,22.667c-0.604,1.744-2.031,4.235-5.036,2.633c-1.806-0.964-4.575-3.372-4.575-3.372   s-2.167-1.083-3.612,0.602c0,0-1.445,2.167-0.241,3.131l10.234,8.909c0,0,2.444,1.232,2.953,4.646l-0.07,4.17   c-1.031,3.463-4.927,3.464-4.927,3.464h-5.539c-2.194,0-3.973,1.779-3.973,3.974s1.779,3.973,3.973,3.973h30.702   c2.194,0,3.973-1.779,3.973-3.973S62.083,107.756,59.888,107.756z" stroke="none" fill="#404a46" transform="matrix(1.183720350265503, 0, 0, 1.183720350265503, 22.630590438842773, 183.893798828125)" stroke-width="1"></path><path d="M42.454,0.228c-4.298,0.588-10.409,3.112-15.141,7.777c-5.408,5.332-5.051,10.027-5.051,10.027   c0,4.165,2.705,5.725,4.574,6.105c0.886,0.181,3.619,0,3.619,0s4.374,0.116,4.374-4.596c0,0,0-6.17,8.865-6.17   c0,0,10.882-1.571,10.882,9.874v14.361c0,0-0.56,4.375,4.489,4.375c0,0,6.078,0.28,8.078,0c2.759-0.385,6.865-2.18,6.865-8.096   c0,0,0.836-16.24-7.842-24.297C56.159,0.3,48.257-0.565,42.454,0.228z" stroke="none" fill="#ffffff" transform="matrix(1.183720350265503, 0, 0, 1.183720350265503, 23.170488357543945, 184.49000549316406)" stroke-width="1"></path><path d="M25.037,39.196h4.093c0,0,3.059-0.667,3.059-4.037c0-1.793-4.983-7.103-15.687-5.828   c-4.33,0.516-13.082,4.125-14.526,14.021c-0.694,4.753,1.608,13.628,9.556,16.793c0,0,9.29,0.121,13.625,0   c0.71-0.02,1.662-0.917,1.686-2.288c0.013-0.736-0.48-2.183-1.806-2.528c-1.607-0.419-4.576-1.806-4.696-7.585v-1.926   C20.341,45.818,20.22,40.52,25.037,39.196z" stroke="none" fill="#ffffff" transform="matrix(1.183720350265503, 0, 0, 1.183720350265503, 23.050065994262695, 183.7379608154297)" stroke-width="1"></path><path d="M23.922,94.392c-1.659-0.432-4.723-1.864-4.848-7.829v-1.988c0,0-0.124-5.467,4.848-6.834h4.224   c0,0,3.158-0.688,3.158-4.167c0-1.851-5.143-7.33-16.19-6.016C10.644,68.09,1.611,71.816,0.12,82.03   c-0.715,4.905,1.661,14.066,9.864,17.332c0,0,9.588,0.124,14.062,0c0.733-0.021,1.716-0.946,1.739-2.361   C25.799,96.242,25.29,94.748,23.922,94.392z" stroke="none" fill="#ffffff" transform="matrix(1.183720350265503, 0, 0, 1.183720350265503, 22.291282653808594, 184.0677490234375)" stroke-width="1"></path><path d="M74.887,47.383c-11.047-1.315-16.19,4.165-16.19,6.015c0,3.479,3.158,4.167,3.158,4.167h4.224   c4.971,1.366,4.848,6.834,4.848,6.834v1.988c-0.125,5.966-3.189,7.397-4.848,7.829c-1.368,0.357-1.877,1.85-1.863,2.609   c0.023,1.415,1.006,2.34,1.739,2.361c4.474,0.124,14.062,0,14.062,0c8.203-3.267,10.579-12.427,9.864-17.333   C88.389,51.641,79.356,47.915,74.887,47.383z" stroke="none" fill="#ffffff" transform="matrix(1.183720350265503, 0, 0, 1.183720350265503, 22.649574279785156, 184.27528381347656)" stroke-width="1"></path></g><path id="_VeJDs572SUOh1EKprQBTg" fill="#ffffff" transform="matrix(0.6504735946655273, 0, 0, 0.6504735946655273, 250.6335928440094, 186.61279309304518)" text="Bottom" text-anchor="start" font-size="100" letter-spacing="0" side="left" offset="0" dx="0" dy="0" space="preserve" href="" font-family="Roboto" font-scale="contain" x="0" y="0" data-fl-textpath="" font-weight="400" font-style="normal" d="M 32.91 0L 8.25 0L 8.25-71.09L 31.49-71.09Q 43.07-71.09  48.9-66.31Q 54.74-61.52  54.74-52.15L 54.74-52.15Q 54.74-47.17  51.9-43.33Q 49.07-39.5  44.19-37.4L 44.19-37.4Q 49.95-35.79  53.3-31.27Q 56.64-26.76  56.64-20.51L 56.64-20.51Q 56.64-10.94  50.44-5.47Q 44.24 0  32.91 0L 32.91 0ZM 33.25-33.25L 17.63-33.25L 17.63-7.67L 33.11-7.67Q 39.65-7.67  43.43-11.06Q 47.22-14.45  47.22-20.41L 47.22-20.41Q 47.22-33.25  33.25-33.25L 33.25-33.25ZM 17.63-63.38L 17.63-40.77L 31.79-40.77Q 37.94-40.77  41.63-43.85Q 45.31-46.92  45.31-52.2L 45.31-52.2Q 45.31-58.06  41.89-60.72Q 38.48-63.38  31.49-63.38L 31.49-63.38L 17.63-63.38ZM 66.695859375-26.27L 66.695859375-26.9Q 66.695859375-34.67  69.755859375-40.87Q 72.805859375-47.07  78.245859375-50.44Q 83.695859375-53.81  90.675859375-53.81L 90.675859375-53.81Q 101.46585937500001-53.81  108.125859375-46.34Q 114.79585937499999-38.87  114.79585937499999-26.46L 114.79585937499999-26.46L 114.79585937499999-25.83Q 114.79585937499999-18.12  111.835859375-11.99Q 108.885859375-5.86  103.395859375-2.44Q 97.895859375 0.98  90.775859375 0.98L 90.775859375 0.98Q 80.025859375 0.98  73.365859375-6.49Q 66.695859375-13.96  66.695859375-26.27L 66.695859375-26.27ZM 75.785859375-25.83L 75.785859375-25.83Q 75.785859375-17.04  79.855859375-11.72Q 83.935859375-6.4  90.775859375-6.4L 90.775859375-6.4Q 97.655859375-6.4  101.705859375-11.79Q 105.76585937499999-17.19  105.76585937499999-26.9L 105.76585937499999-26.9Q 105.76585937499999-35.6  101.635859375-40.99Q 97.505859375-46.39  90.675859375-46.39L 90.675859375-46.39Q 83.985859375-46.39  79.885859375-41.06Q 75.785859375-35.74  75.785859375-25.83ZM 129.347109375-65.63L 138.377109375-65.63L 138.377109375-52.83L 148.247109375-52.83L 148.247109375-45.85L 138.377109375-45.85L 138.377109375-13.09Q 138.377109375-9.91  139.697109375-8.33Q 141.017109375-6.74  144.187109375-6.74L 144.187109375-6.74Q 145.747109375-6.74  148.487109375-7.32L 148.487109375-7.32L 148.487109375 0Q 144.917109375 0.98  141.557109375 0.98L 141.557109375 0.98Q 135.497109375 0.98  132.417109375-2.69Q 129.347109375-6.35  129.347109375-13.09L 129.347109375-13.09L 129.347109375-45.85L 119.727109375-45.85L 119.727109375-52.83L 129.347109375-52.83L 129.347109375-65.63ZM 162.013125-65.63L 171.043125-65.63L 171.043125-52.83L 180.913125-52.83L 180.913125-45.85L 171.043125-45.85L 171.043125-13.09Q 171.043125-9.91  172.363125-8.33Q 173.683125-6.74  176.853125-6.74L 176.853125-6.74Q 178.413125-6.74  181.153125-7.32L 181.153125-7.32L 181.153125 0Q 177.583125 0.98  174.223125 0.98L 174.223125 0.98Q 168.163125 0.98  165.083125-2.69Q 162.013125-6.35  162.013125-13.09L 162.013125-13.09L 162.013125-45.85L 152.393125-45.85L 152.393125-52.83L 162.013125-52.83L 162.013125-65.63ZM 188.082578125-26.27L 188.082578125-26.9Q 188.082578125-34.67  191.142578125-40.87Q 194.192578125-47.07  199.632578125-50.44Q 205.082578125-53.81  212.06257812500002-53.81L 212.06257812500002-53.81Q 222.852578125-53.81  229.512578125-46.34Q 236.182578125-38.87  236.182578125-26.46L 236.182578125-26.46L 236.182578125-25.83Q 236.182578125-18.12  233.22257812499998-11.99Q 230.272578125-5.86  224.782578125-2.44Q 219.282578125 0.98  212.162578125 0.98L 212.162578125 0.98Q 201.412578125 0.98  194.752578125-6.49Q 188.082578125-13.96  188.082578125-26.27L 188.082578125-26.27ZM 197.172578125-25.83L 197.172578125-25.83Q 197.172578125-17.04  201.242578125-11.72Q 205.322578125-6.4  212.162578125-6.4L 212.162578125-6.4Q 219.042578125-6.4  223.092578125-11.79Q 227.152578125-17.19  227.152578125-26.9L 227.152578125-26.9Q 227.152578125-35.6  223.022578125-40.99Q 218.892578125-46.39  212.06257812500002-46.39L 212.06257812500002-46.39Q 205.372578125-46.39  201.272578125-41.06Q 197.172578125-35.74  197.172578125-25.83ZM 247.463828125-52.83L 256.003828125-52.83L 256.253828125-46.97Q 262.063828125-53.81  271.923828125-53.81L 271.923828125-53.81Q 283.003828125-53.81  287.01382812500003-45.31L 287.01382812500003-45.31Q 289.643828125-49.12  293.873828125-51.46Q 298.093828125-53.81  303.853828125-53.81L 303.853828125-53.81Q 321.243828125-53.81  321.533828125-35.4L 321.533828125-35.4L 321.533828125 0L 312.503828125 0L 312.503828125-34.86Q 312.503828125-40.53  309.913828125-43.33Q 307.323828125-46.14  301.223828125-46.14L 301.223828125-46.14Q 296.193828125-46.14  292.873828125-43.14Q 289.553828125-40.14  289.01382812500003-35.06L 289.01382812500003-35.06L 289.01382812500003 0L 279.933828125 0L 279.933828125-34.62Q 279.933828125-46.14  268.653828125-46.14L 268.653828125-46.14Q 259.763828125-46.14  256.493828125-38.57L 256.493828125-38.57L 256.493828125 0L 247.463828125 0L 247.463828125-52.83Z"></path><path id="_XmPMX6KpYhCNEEYcpp-KM" fill="#ffffff" transform="matrix(0.6504735946655273, 0, 0, 0.6504735946655273, 251.5507605132334, 255.1970280510061)" text="Up" text-anchor="start" font-size="100" letter-spacing="0" side="left" offset="0" dx="0" dy="0" space="preserve" href="" font-family="Roboto" font-scale="contain" x="0" y="0" data-fl-textpath="" font-weight="400" font-style="normal" d="M 48.88-71.09L 58.3-71.09L 58.3-22.75Q 58.25-12.7  51.98-6.3Q 45.7 0.1  34.96 0.88L 34.96 0.88L 32.47 0.98Q 20.8 0.98  13.87-5.32Q 6.93-11.62  6.84-22.66L 6.84-22.66L 6.84-71.09L 16.11-71.09L 16.11-22.95Q 16.11-15.23  20.36-10.96Q 24.61-6.69  32.47-6.69L 32.47-6.69Q 40.43-6.69  44.65-10.94Q 48.88-15.19  48.88-22.9L 48.88-22.9L 48.88-71.09ZM 116.30375000000001-26.66L 116.30375000000001-25.83Q 116.30375000000001-13.77  110.79375-6.4Q 105.27375 0.98  95.85375 0.98L 95.85375 0.98Q 86.23375 0.98  80.71375-5.13L 80.71375-5.13L 80.71375 20.31L 71.68375 20.31L 71.68375-52.83L 79.93375-52.83L 80.37375-46.97Q 85.88374999999999-53.81  95.70375-53.81L 95.70375-53.81Q 105.22375-53.81  110.76375-46.63Q 116.30375000000001-39.45  116.30375000000001-26.66L 116.30375000000001-26.66ZM 107.27375-26.86L 107.27375-26.86Q 107.27375-35.79  103.46375-40.97Q 99.65375-46.14  93.01375-46.14L 93.01375-46.14Q 84.81375-46.14  80.71375-38.87L 80.71375-38.87L 80.71375-13.62Q 84.76375-6.4  93.11375-6.4L 93.11375-6.4Q 99.61375000000001-6.4  103.44375-11.55Q 107.27375-16.7  107.27375-26.86Z"></path><path d="M84.385,0.139c0,0,7.216,17.238-14.382,53.421c-17.426,29.192-18.639,58.697,3.698,78.898 c1.574,1.424,3.225,2.605,4.922,3.58c1.028,0.549,2.12,0.998,3.211,1.226c0,0-7.284,16.83-16.376,24.38 c-0.191,0.297-0.294,0.453-0.294,0.453s-7.554,30.633,9.402,2.949c0.595-0.971,1.168-1.947,1.731-2.924 c0.163-0.283,0.321-0.566,0.481-0.85c0.466-0.824,0.925-1.648,1.368-2.477c0.141-0.262,0.276-0.524,0.415-0.787 c0.398-0.754,0.789-1.51,1.169-2.266c0.16-0.316,0.316-0.633,0.473-0.949c0.369-0.75,0.73-1.5,1.083-2.25 c0.133-0.283,0.267-0.565,0.397-0.848c0.373-0.807,0.734-1.613,1.088-2.42c0.12-0.273,0.242-0.548,0.36-0.821 c0.356-0.825,0.701-1.651,1.038-2.476c0.117-0.285,0.235-0.572,0.35-0.858c0.327-0.813,0.645-1.626,0.954-2.437 c0.111-0.293,0.223-0.586,0.332-0.879c0.3-0.803,0.593-1.604,0.876-2.401c10.097-28.437,9.512-53.575,9.512-53.575 c0,0.004,0,0.008-0.001,0.013c0.145-3.411,0.118-6.859-0.118-10.318c0,0,8.102,30.597-4.262,63.721 C118.147,137.541,141.861,88.845,84.385,0.139z" transform="matrix(0.3969001770019531, 0.6217917799949646, -0.6217917799949646, 0.3969001770019531, 420.1631720762655, 162.9076095298492)" fill="#ffffff"></path></svg>